# xmcd CD database file
#
# Track frame offsets:
#	150
#	16730
#	39770
#	53329
#	75923
#	88000
#	113515
#	129948
#	146397
#	160169
#	178174
#	192667
#	207935
#	223402
#	240382
#	257069
#	275849
#
# Disc length: 3865 seconds
#
# Revision: 0
# Processed by: cddbd v1.5.1PL0 Copyright (c) Steve Scherf et al.
# Submitted via: CDex 1.51
#
DISCID=df0f1711
DTITLE=Arthur Rosenbauer - "Zeitlos"
DYEAR=1900
DGENRE=Blues
TTITLE0=Altmühl-Song
TTITLE1=Let the sun shine - Gospel
TTITLE2=Leberkäs - Blues
TTITLE3=Last minute - Song
TTITLE4=Sofa - Rock
TTITLE5=The Time Song
TTITLE6=Playing my guitar - Song
TTITLE7=Kostenfaktor - Song
TTITLE8=heartbreaker Blues
TTITLE9=Fall down - Blues
TTITLE10=D´ Leb´n - Blues
TTITLE11=Hard working man - Blues
TTITLE12=D´ Drud - Song
TTITLE13=Rhythm and Blues
TTITLE14=Bad - Blues
TTITLE15=Einfach Mittendrin
TTITLE16=Der Zitter - Blues
EXTD=
EXTT0=
EXTT1=
EXTT2=
EXTT3=
EXTT4=
EXTT5=
EXTT6=
EXTT7=
EXTT8=
EXTT9=
EXTT10=
EXTT11=
EXTT12=
EXTT13=
EXTT14=
EXTT15=
EXTT16=
PLAYORDER=
